<svg width="34" height="34" viewBox="0 0 34 34" fill="none" xmlns="http://www.w3.org/2000/svg">
<rect width="34" height="34" fill="#181818"/>
<path d="M25.0829 20.5245L26.2849 21.2455C26.359 21.2899 26.4204 21.3528 26.463 21.4279C26.5056 21.5031 26.528 21.5881 26.528 21.6745C26.528 21.7609 26.5056 21.8459 26.463 21.9211C26.4204 21.9963 26.359 22.0591 26.2849 22.1035L17.5149 27.3655C17.3593 27.459 17.1813 27.5083 16.9999 27.5083C16.8184 27.5083 16.6404 27.459 16.4849 27.3655L7.71485 22.1035C7.6407 22.0591 7.57932 21.9963 7.5367 21.9211C7.49408 21.8459 7.47168 21.7609 7.47168 21.6745C7.47168 21.5881 7.49408 21.5031 7.5367 21.4279C7.57932 21.3528 7.6407 21.2899 7.71485 21.2455L8.91685 20.5245L16.9999 25.3745L25.0829 20.5245ZM25.0829 15.8245L26.2849 16.5455C26.359 16.5899 26.4204 16.6528 26.463 16.7279C26.5056 16.8031 26.528 16.8881 26.528 16.9745C26.528 17.0609 26.5056 17.1459 26.463 17.2211C26.4204 17.2963 26.359 17.3591 26.2849 17.4035L16.9999 22.9735L7.71485 17.4035C7.6407 17.3591 7.57932 17.2963 7.5367 17.2211C7.49408 17.1459 7.47168 17.0609 7.47168 16.9745C7.47168 16.8881 7.49408 16.8031 7.5367 16.7279C7.57932 16.6528 7.6407 16.5899 7.71485 16.5455L8.91685 15.8245L16.9999 20.6745L25.0829 15.8245ZM17.5139 6.63351L26.2849 11.8955C26.359 11.9399 26.4204 12.0028 26.463 12.0779C26.5056 12.1531 26.528 12.2381 26.528 12.3245C26.528 12.4109 26.5056 12.4959 26.463 12.5711C26.4204 12.6463 26.359 12.7091 26.2849 12.7535L16.9999 18.3235L7.71485 12.7545C7.6407 12.7101 7.57932 12.6473 7.5367 12.5721C7.49408 12.4969 7.47168 12.4119 7.47168 12.3255C7.47168 12.2391 7.49408 12.1541 7.5367 12.0789C7.57932 12.0038 7.6407 11.9409 7.71485 11.8965L16.4849 6.63451C16.6404 6.54107 16.8184 6.4917 16.9999 6.4917C17.1813 6.4917 17.3593 6.54107 17.5149 6.63451M16.9999 8.65651L10.8869 12.3245L16.9999 15.9925L23.1129 12.3245L16.9999 8.65651Z" fill="white"/>
</svg>
