<svg width="34" height="34" viewBox="0 0 34 34" fill="none" xmlns="http://www.w3.org/2000/svg">
<rect width="34" height="34" fill="#181818"/>
<path d="M23.9172 12.9421L22.5138 11.5029L21.1919 12.6864L20.3128 13.4747L23.8658 17.1294L21.642 19.4174L20.3119 20.7851C20.8161 21.2425 21.312 21.6926 21.8153 22.1473L22.5156 22.7834L24.5414 20.6962L28 17.1285L23.9172 12.9421ZM8.74267 14.3162L6 17.1285C7.8425 19.0288 9.66025 20.9006 11.4853 22.7816L11.9528 22.3563L13.6881 20.7842L12.3617 19.4202L10.1342 17.1285L12.9841 14.1989L13.6872 13.4756C13.2893 13.1181 12.8988 12.7679 12.5065 12.4178L11.4853 11.5002L8.74267 14.3162ZM20.2789 8.78136L16.6627 25.8002L16.483 25.7644L13.7064 25.219L16.0485 14.2007L17.3236 8.2002L20.2789 8.78136Z" fill="white"/>
</svg>
