<svg width="42" height="42" viewBox="0 0 42 42" fill="none" xmlns="http://www.w3.org/2000/svg">
<path d="M37.835 19.4392L22.5557 4.16346C22.1325 3.74081 21.5588 3.50342 20.9606 3.50342C20.3625 3.50342 19.7888 3.74081 19.3655 4.16346L16.1997 7.33271L20.223 11.3577C20.6977 11.1973 21.2078 11.1732 21.6955 11.288C22.1833 11.4028 22.629 11.652 22.9823 12.0072C23.3356 12.3625 23.5823 12.8097 23.6943 13.2981C23.8064 13.7865 23.7793 14.2964 23.6162 14.7702L27.4907 18.65C28.0644 18.4487 28.6894 18.4486 29.2631 18.6497C29.8368 18.8509 30.325 19.2412 30.6473 19.7566C30.9697 20.2721 31.1071 20.8818 31.0368 21.4857C30.9666 22.0895 30.693 22.6515 30.261 23.0792C29.2127 24.1292 27.5205 24.1292 26.4705 23.0792C26.0983 22.7053 25.8441 22.2305 25.7392 21.7134C25.6344 21.1964 25.6836 20.66 25.8807 20.1707L22.2513 16.5605V26.0752C22.5068 26.1995 22.7517 26.371 22.9635 26.5827C23.4638 27.0866 23.7446 27.7679 23.7446 28.478C23.7446 29.188 23.4638 29.8693 22.9635 30.3732C22.7138 30.6233 22.4173 30.8217 22.0909 30.957C21.7645 31.0924 21.4146 31.1621 21.0612 31.1621C20.7079 31.1621 20.358 31.0924 20.0316 30.957C19.7052 30.8217 19.4087 30.6233 19.159 30.3732C18.9103 30.1246 18.713 29.8294 18.5784 29.5045C18.4438 29.1796 18.3746 28.8314 18.3746 28.4797C18.3746 28.128 18.4438 27.7798 18.5784 27.4549C18.713 27.13 18.9103 26.8348 19.159 26.5862C19.4273 26.3225 19.7213 26.1248 20.041 25.993V16.3855C19.7139 16.2513 19.4167 16.0537 19.1664 15.8041C18.9161 15.5545 18.7177 15.2578 18.5827 14.9311C18.4476 14.6044 18.3786 14.2542 18.3796 13.9007C18.3806 13.5472 18.4516 13.1974 18.5885 12.8715L14.6335 8.89721L4.15625 19.3657C3.28125 20.2477 3.28125 21.6757 4.15625 22.5577L19.4355 37.8335C19.6446 38.043 19.8929 38.2093 20.1663 38.3228C20.4397 38.4362 20.7329 38.4946 21.0289 38.4946C21.3249 38.4946 21.618 38.4362 21.8914 38.3228C22.1649 38.2093 22.4132 38.043 22.6222 37.8335L37.8298 22.6277C38.0404 22.4192 38.2077 22.1711 38.322 21.8977C38.4363 21.6243 38.4954 21.3309 38.4959 21.0345C38.4964 20.7382 38.4383 20.4447 38.3248 20.1709C38.2114 19.8971 38.0449 19.6484 37.835 19.4392Z" fill="black"/>
</svg>
