<svg width="38" height="42" viewBox="0 0 38 42" fill="none" xmlns="http://www.w3.org/2000/svg">
<g clip-path="url(#clip0_575_1008)">
<path d="M38.0003 36.666C38.0042 37.4042 37.8505 38.1347 37.5495 38.8093C37.2485 39.4838 36.807 40.0869 36.2543 40.5786C35.7017 41.0702 35.0504 41.4393 34.3438 41.6612C33.6371 41.8831 32.8912 41.9529 32.1554 41.8659C29.477 41.471 27.5144 39.149 27.5797 36.4523V5.44877C27.515 2.74923 29.4825 0.425922 32.1643 0.0353517C32.8994 -0.0504111 33.6444 0.0202995 34.35 0.242806C35.0556 0.465313 35.7058 0.834544 36.2574 1.32608C36.8091 1.81761 37.2498 2.42024 37.5502 3.09411C37.8507 3.76797 38.0041 4.49772 38.0003 5.23507V36.666Z" fill="#F9AB00"/>
<path d="M5.2103 31.5287C8.08791 31.5287 10.4206 33.8529 10.4206 36.7197C10.4206 39.5866 8.08791 41.9107 5.2103 41.9107C2.3327 41.9107 0 39.5866 0 36.7198C0 33.853 2.3327 31.5287 5.2103 31.5287ZM18.9197 15.7954C16.0286 15.9533 13.7852 18.3695 13.8525 21.2536V35.1972C13.8525 38.9813 15.5237 41.2786 17.9724 41.7683C18.7315 41.9216 19.5154 41.9047 20.2672 41.7187C21.0189 41.5327 21.7197 41.1823 22.3187 40.693C22.9177 40.2036 23.3998 39.5876 23.7301 38.8896C24.0604 38.1915 24.2306 37.429 24.2284 36.6573V21.0133C24.2297 20.3217 24.0928 19.6368 23.8255 18.9985C23.5583 18.3602 23.1662 17.7813 22.672 17.2956C22.1779 16.8099 21.5915 16.4271 20.9473 16.1695C20.3031 15.912 19.6138 15.7847 18.9197 15.7954Z" fill="#E37400"/>
</g>
<defs>
<clipPath id="clip0_575_1008">
<rect width="38" height="42" fill="white"/>
</clipPath>
</defs>
</svg>
