<svg width="20" height="23" viewBox="0 0 20 23" fill="none" xmlns="http://www.w3.org/2000/svg">
<path fill-rule="evenodd" clip-rule="evenodd" d="M10 0C12.6522 0 15.1957 1.04323 17.0711 2.9002C18.9464 4.75717 20 7.27575 20 9.9019C20 13.2839 18.1378 16.0521 16.1756 18.038C15.1952 19.0194 14.1255 19.9092 12.98 20.6961L12.5067 21.0151L12.2844 21.1615L11.8656 21.4255L11.4922 21.6511L11.03 21.9173C10.7163 22.0946 10.3613 22.1879 10 22.1879C9.63875 22.1879 9.28374 22.0946 8.97 21.9173L8.50778 21.6511L7.93 21.299L7.71667 21.1615L7.26111 20.8611C6.02537 20.0332 4.87434 19.0877 3.82444 18.038C1.86222 16.051 0 13.2839 0 9.9019C0 7.27575 1.05357 4.75717 2.92893 2.9002C4.8043 1.04323 7.34784 0 10 0ZM10 2.20042C7.93721 2.20042 5.9589 3.01183 4.50028 4.45613C3.04166 5.90044 2.22222 7.85934 2.22222 9.9019C2.22222 12.4566 3.63556 14.6988 5.41222 16.4988C6.17615 17.2645 7.00184 17.9673 7.88111 18.6002L8.39 18.9588C8.55444 19.0725 8.71259 19.1781 8.86444 19.2757L9.29778 19.5508L9.67889 19.7807L10 19.9666L10.5056 19.6707L10.9133 19.4176C11.1304 19.2812 11.3626 19.1283 11.61 18.9588L12.1189 18.6002C12.9982 17.9673 13.8239 17.2645 14.5878 16.4988C16.3644 14.6999 17.7778 12.4566 17.7778 9.9019C17.7778 7.85934 16.9583 5.90044 15.4997 4.45613C14.0411 3.01183 12.0628 2.20042 10 2.20042ZM10 5.50106C11.1787 5.50106 12.3092 5.96471 13.1427 6.79003C13.9762 7.61535 14.4444 8.73472 14.4444 9.9019C14.4444 11.0691 13.9762 12.1884 13.1427 13.0138C12.3092 13.8391 11.1787 14.3027 10 14.3027C8.82126 14.3027 7.6908 13.8391 6.8573 13.0138C6.02381 12.1884 5.55556 11.0691 5.55556 9.9019C5.55556 8.73472 6.02381 7.61535 6.8573 6.79003C7.6908 5.96471 8.82126 5.50106 10 5.50106ZM10 7.70148C9.41063 7.70148 8.8454 7.93331 8.42865 8.34597C8.01191 8.75863 7.77778 9.31831 7.77778 9.9019C7.77778 10.4855 8.01191 11.0452 8.42865 11.4578C8.8454 11.8705 9.41063 12.1023 10 12.1023C10.5894 12.1023 11.1546 11.8705 11.5713 11.4578C11.9881 11.0452 12.2222 10.4855 12.2222 9.9019C12.2222 9.31831 11.9881 8.75863 11.5713 8.34597C11.1546 7.93331 10.5894 7.70148 10 7.70148Z" fill="#4C4C4C"/>
</svg>
