<svg width="48" height="48" viewBox="0 0 48 48" fill="none" xmlns="http://www.w3.org/2000/svg">
<path d="M19.2337 29.4587C18.8688 29.9999 18.4688 30.4436 18.0333 30.7897C17.6035 31.1278 17.1604 31.3884 16.7045 31.5714C16.2539 31.7463 15.7961 31.8527 15.3307 31.8911C14.8707 31.9215 14.4213 31.9007 13.9827 31.8292C13.5523 31.7627 13.1381 31.6548 12.7399 31.5051C12.3557 31.3526 12.0099 31.1784 11.7025 30.9826L5.85671 27.2581C5.29997 26.9033 4.84768 26.517 4.49988 26.099C4.15205 25.6811 3.88404 25.2506 3.69585 24.8073C3.52142 24.3613 3.41446 23.912 3.375 23.4597C3.34383 23.0125 3.3624 22.5798 3.43068 22.1613C3.50441 21.7349 3.61552 21.3322 3.76404 20.9534C3.92631 20.5718 4.10547 20.2356 4.30154 19.9448L7.17716 15.6798C7.7218 14.872 8.33158 14.2847 9.0065 13.9179C9.6952 13.5484 10.381 13.3329 11.0639 13.2714C11.7606 13.2072 12.4266 13.2678 13.0618 13.4531C13.6971 13.6385 14.239 13.8741 14.6879 14.16L20.5335 17.8846L18.4096 21.0348L12.5887 17.3261C12.1566 17.0509 11.7549 16.9508 11.3835 17.026C11.0175 17.0931 10.6956 17.3326 10.4179 17.7445L7.55859 21.9853C7.26993 22.4135 7.1601 22.8053 7.22912 23.1612C7.30642 23.5221 7.55696 23.8376 7.98075 24.1076L13.8265 27.8322C14.2668 28.1129 14.6687 28.2129 15.0317 28.1325C15.3948 28.052 15.7153 27.8058 15.993 27.3939L25.5758 13.1812L28.8165 15.2459L19.2337 29.4587Z" fill="#4A4A4A"/>
<path d="M32.1282 16.4192L27.8388 13.7612L16.9014 30.4403L21.1908 33.0984L32.1282 16.4192Z" fill="#EFEFEF"/>
<path d="M19.1177 23.9946L21.8521 19.8248L17.5625 17.1667L14.8281 21.3365L19.1177 23.9946Z" fill="#EFEFEF"/>
<path d="M7.53613 32.456L10.2705 28.2861L14.5599 30.9442L11.8256 35.1141L7.53613 32.456Z" fill="#EFEFEF"/>
<path d="M11.8252 35.114L14.5596 30.9441C15.3493 31.4335 16.3975 31.2078 16.9008 30.4402L21.1904 33.0983L20.2788 34.4883L13.255 36L11.8252 35.114Z" fill="#EFEFEF"/>
<path d="M4.67716 30.6838L7.53681 32.4559L10.2712 28.286L8.84135 27.4C8.05169 26.9107 7.81961 25.8917 8.32299 25.124L11.0573 20.9543C11.5607 20.1867 12.609 19.961 13.3987 20.4504L14.8284 21.3364L17.5628 17.1666L13.2734 14.5085L7.67934 16.9062L3.12207 23.856L4.67716 30.6838Z" fill="#EFEFEF"/>
<path d="M28.5782 18.7369C28.9238 18.1839 29.308 17.7272 29.7309 17.3667C30.1486 17.0144 30.5821 16.7392 31.0313 16.5412C31.4754 16.3513 31.9293 16.2295 32.3931 16.1756C32.8517 16.1301 33.3016 16.1357 33.7424 16.1928C34.175 16.2447 34.5928 16.3388 34.9958 16.4751C35.3853 16.6147 35.737 16.7772 36.0512 16.9627L42.025 20.4901C42.5939 20.826 43.0597 21.197 43.4221 21.603C43.7844 22.0092 44.0674 22.4305 44.2712 22.8673C44.4613 23.3072 44.5839 23.7526 44.6393 24.2034C44.6863 24.6493 44.6831 25.0823 44.6295 25.5028C44.571 25.9315 44.4742 26.3376 44.3391 26.7212C44.1903 27.1079 44.0232 27.4499 43.8375 27.7471L41.1141 32.1056C40.5983 32.9311 40.0096 33.5383 39.348 33.9273C38.6728 34.3196 37.995 34.558 37.3148 34.642C36.6207 34.7296 35.953 34.6913 35.3116 34.5271C34.6701 34.3631 34.12 34.1457 33.6615 33.8749L27.6877 30.3477L29.6994 27.1283L35.6476 30.6406C36.0892 30.9013 36.4943 30.9879 36.8627 30.9005C37.2261 30.8212 37.5394 30.571 37.8024 30.15L40.5103 25.8164C40.7837 25.379 40.8796 24.9836 40.7981 24.6303C40.708 24.2721 40.4466 23.9651 40.0135 23.7094L34.0397 20.182C33.5897 19.9163 33.1846 19.8298 32.8246 19.9222C32.4644 20.0147 32.153 20.2715 31.89 20.6925L22.8147 35.2165L19.5029 33.2611L28.5782 18.7369Z" fill="#4A4A4A"/>
<path d="M16.1533 32.1985L20.5341 34.7119L30.8762 17.6777L26.4956 15.1643L16.1533 32.1985Z" fill="#EFEFEF"/>
<path d="M28.8882 24.1936L26.3027 28.4522L30.6835 30.9655L33.269 26.707L28.8882 24.1936Z" fill="#EFEFEF"/>
<path d="M40.1636 15.3511L37.5781 19.6095L33.1973 17.0962L35.7827 12.8376L40.1636 15.3511Z" fill="#EFEFEF"/>
<path d="M35.7826 12.8378L33.1969 17.0964C32.3905 16.6337 31.3509 16.8941 30.875 17.6781L26.4941 15.1647L27.356 13.7451L34.3223 12L35.7826 12.8378Z" fill="#EFEFEF"/>
<path d="M43.0834 17.0268L40.1628 15.3511L37.5774 19.6097L39.0376 20.4475C39.8441 20.9102 40.112 21.9208 39.636 22.7049L37.0505 26.9633C36.5746 27.7474 35.5348 28.0078 34.7284 27.5452L33.2681 26.7073L30.6826 30.9659L35.0634 33.4793L40.5695 30.8963L44.8787 23.7987L43.0834 17.0268Z" fill="#EFEFEF"/>
</svg>
