<svg width="42" height="42" viewBox="0 0 42 42" fill="none" xmlns="http://www.w3.org/2000/svg">
<path d="M10.682 10.3424C11.704 11.1718 12.0855 11.1089 14.0035 10.9811L32.0845 9.8961C32.4695 9.8961 32.1493 9.5111 32.0215 9.4481L29.0185 7.2781C28.4428 6.83185 27.6763 6.3191 26.208 6.44685L8.69925 7.72435C8.06225 7.78735 7.9345 8.1076 8.18825 8.3631L10.682 10.3424ZM11.767 14.5563V33.5788C11.767 34.6026 12.278 34.9841 13.4295 34.9211L33.299 33.7713C34.4487 33.7083 34.5765 33.0049 34.5765 32.1736V13.2788C34.5765 12.4493 34.258 12.0013 33.5545 12.0661L12.789 13.2788C12.0225 13.3418 11.767 13.7251 11.767 14.5563ZM31.3845 15.5766C31.5105 16.1506 31.3845 16.7263 30.807 16.7911L29.8497 16.9818V31.0256C29.0185 31.4736 28.252 31.7273 27.6133 31.7273C26.5913 31.7273 26.3358 31.4088 25.5693 30.4516L19.306 20.6201V30.1331L21.2887 30.5794C21.2887 30.5794 21.2888 31.7273 19.6893 31.7273L15.281 31.9828C15.1533 31.7273 15.281 31.0904 15.729 30.9626L16.8788 30.6441V18.0668L15.281 17.9391C15.1533 17.3633 15.4735 16.5338 16.3677 16.4691L21.0963 16.1506L27.6133 26.1116V17.3003L25.9508 17.1096C25.8248 16.4061 26.3357 15.8968 26.9745 15.8321L31.3845 15.5766ZM7.22925 6.0006L25.4397 4.6601C27.6745 4.4676 28.2503 4.5971 29.6573 5.61735L35.469 9.7036C36.428 10.4054 36.7483 10.5961 36.7483 11.3626V33.7713C36.7483 35.1766 36.2372 36.0061 34.4487 36.1338L13.3 37.4113C11.9577 37.4743 11.319 37.2836 10.6155 36.3893L6.335 30.8349C5.5685 29.8129 5.25 29.0481 5.25 28.1521V8.2336C5.25 7.0856 5.75925 6.12835 7.22925 6.0006Z" fill="black"/>
</svg>
