<svg width="21" height="21" viewBox="0 0 21 21" fill="none" xmlns="http://www.w3.org/2000/svg">
<path d="M6.21701 14.784C4.00834 12.571 2.30979 9.90226 1.24014 6.96435C0.651668 5.35811 1.19085 3.59372 2.40066 2.3839L3.14935 1.63624C3.35063 1.43456 3.58971 1.27455 3.8529 1.16537C4.1161 1.0562 4.39824 1 4.68318 1C4.96812 1 5.25026 1.0562 5.51346 1.16537C5.77665 1.27455 6.01573 1.43456 6.21701 1.63624L7.97011 3.38934C8.1718 3.59062 8.33181 3.8297 8.44098 4.0929C8.55015 4.35609 8.60635 4.63824 8.60635 4.92318C8.60635 5.20812 8.55015 5.49026 8.44098 5.75346C8.33181 6.01665 8.1718 6.25573 7.97011 6.45701L7.53877 6.88835C7.36611 7.06097 7.22915 7.26591 7.13571 7.49147C7.04227 7.71702 6.99417 7.95878 6.99417 8.20292C6.99417 8.44707 7.04227 8.68882 7.13571 8.91438C7.22915 9.13993 7.36611 9.34487 7.53877 9.51749L11.4825 13.4622C11.6551 13.6349 11.86 13.7718 12.0856 13.8653C12.3111 13.9587 12.5529 14.0068 12.797 14.0068C13.0412 14.0068 13.2829 13.9587 13.5085 13.8653C13.734 13.7718 13.939 13.6349 14.1116 13.4622L14.544 13.0309C14.7453 12.8292 14.9843 12.6692 15.2475 12.56C15.5107 12.4508 15.7929 12.3946 16.0778 12.3946C16.3627 12.3946 16.6449 12.4508 16.9081 12.56C17.1713 12.6692 17.4104 12.8292 17.6116 13.0309L19.3647 14.784C19.5664 14.9853 19.7264 15.2243 19.8356 15.4875C19.9448 15.7507 20.001 16.0329 20.001 16.3178C20.001 16.6028 19.9448 16.8849 19.8356 17.1481C19.7264 17.4113 19.5664 17.6504 19.3647 17.8517L18.6171 18.5993C17.4073 19.8102 15.6429 20.3493 14.0366 19.7609C11.0987 18.6912 8.42997 16.9927 6.21701 14.784Z" stroke="#4C4C4C" stroke-width="2" stroke-linejoin="round"/>
</svg>
