<svg width="42" height="42" viewBox="0 0 42 42" fill="none" xmlns="http://www.w3.org/2000/svg">
<path d="M21 15.75C30.7703 15.75 36.75 19.1494 36.75 21C36.75 22.8506 30.7703 26.25 21 26.25C11.2298 26.25 5.25 22.8506 5.25 21C5.25 19.1494 11.2298 15.75 21 15.75ZM21 13.125C10.8518 13.125 2.625 16.6504 2.625 21C2.625 25.3496 10.8518 28.875 21 28.875C31.1483 28.875 39.375 25.3496 39.375 21C39.375 16.6504 31.1483 13.125 21 13.125Z" fill="#00BCD4"/>
<path d="M21 18.375C20.4808 18.375 19.9733 18.529 19.5416 18.8174C19.11 19.1058 18.7735 19.5158 18.5748 19.9955C18.3761 20.4751 18.3242 21.0029 18.4254 21.5121C18.5267 22.0213 18.7767 22.489 19.1438 22.8562C19.511 23.2233 19.9787 23.4733 20.4879 23.5746C20.9971 23.6758 21.5249 23.6239 22.0045 23.4252C22.4842 23.2265 22.8942 22.8901 23.1826 22.4584C23.471 22.0267 23.625 21.5192 23.625 21C23.625 20.3038 23.3484 19.6361 22.8562 19.1438C22.3639 18.6516 21.6962 18.375 21 18.375Z" fill="#00BCD4"/>
<path d="M13.7257 7.22803C16.373 7.22803 21.518 11.3978 25.546 18.3751C30.4312 26.8368 30.4771 33.7143 28.8745 34.6396C28.6897 34.7354 28.4827 34.7807 28.2747 34.7708C25.6274 34.7708 20.4811 30.6023 16.453 23.6251C11.5679 15.1634 11.522 8.2859 13.1245 7.36059C13.3098 7.26451 13.5172 7.21791 13.7257 7.22803ZM13.7243 4.60434C13.0554 4.59224 12.3954 4.7585 11.812 5.08603C8.04516 7.26084 9.10566 16.1491 14.1798 24.9376C18.49 32.4057 24.3123 37.3972 28.276 37.3972C28.9447 37.4082 29.6043 37.2411 30.187 36.9128C33.9539 34.7393 32.8934 25.8511 27.8193 17.0626C23.509 9.59446 17.6868 4.60303 13.723 4.60303L13.7243 4.60434Z" fill="#00BCD4"/>
<path d="M28.2754 7.22808C28.4834 7.21819 28.6903 7.26347 28.8752 7.35933C30.4778 8.28595 30.4318 15.1635 25.5467 23.6251C21.5173 30.6024 16.3723 34.7722 13.725 34.7722C13.517 34.7821 13.3101 34.7368 13.1252 34.641C11.5227 33.713 11.5686 26.8355 16.4537 18.3751C20.4831 11.3979 25.6281 7.22808 28.2754 7.22808ZM28.2754 4.60308C24.3117 4.60308 18.4907 9.59583 14.1792 17.0626C9.10765 25.8511 8.04584 34.7394 11.8127 36.9129C12.3958 37.2413 13.0559 37.4085 13.725 37.3972C17.6888 37.3972 23.5097 32.4045 27.8213 24.9376C32.8928 16.1491 33.9546 7.26089 30.1877 5.08739C29.6046 4.75894 28.9445 4.59177 28.2754 4.60308Z" fill="#00BCD4"/>
</svg>
