<svg width="34" height="34" viewBox="0 0 34 34" fill="none" xmlns="http://www.w3.org/2000/svg">
<rect width="34" height="34" fill="#181818"/>
<path d="M8.41455 22.1674C9.10289 21.4786 9.90717 20.9163 10.7905 20.5065C9.5448 19.4972 8.75005 17.9573 8.75005 16.2303C8.75005 13.1834 11.291 10.6838 14.338 10.7305C17.3382 10.7773 19.7555 13.2219 19.7555 16.2303C19.7555 17.9573 18.958 19.4972 17.715 20.5065C18.5985 20.916 19.4029 21.4783 20.091 22.1674C21.5925 23.6716 22.445 25.6571 22.5 27.7745C22.5007 27.8039 22.4956 27.8331 22.4848 27.8604C22.4741 27.8877 22.458 27.9126 22.4375 27.9336C22.417 27.9546 22.3925 27.9713 22.3654 27.9827C22.3384 27.9941 22.3093 28 22.28 28H20.74C20.6217 28 20.5227 27.9065 20.52 27.7883C20.4677 26.1933 19.8215 24.7001 18.6857 23.5671C18.1046 22.9829 17.4133 22.5197 16.6519 22.2044C15.8905 21.8891 15.0741 21.7279 14.25 21.7302C12.5753 21.7302 10.9995 22.3819 9.81429 23.5671C8.6813 24.7001 8.03506 26.1933 7.98006 27.7883C7.97731 27.9065 7.87831 28 7.76006 28H6.22007C6.19071 28 6.16164 27.9941 6.13459 27.9827C6.10753 27.9713 6.08303 27.9546 6.06253 27.9336C6.04202 27.9126 6.02594 27.8877 6.01521 27.8604C6.00448 27.8331 5.99933 27.8039 6.00007 27.7745C6.05507 25.6571 6.90756 23.6716 8.41455 22.1674ZM14.25 19.7502C15.1905 19.7502 16.076 19.3845 16.7388 18.719C17.0714 18.389 17.3341 17.9955 17.5113 17.5617C17.6884 17.128 17.7764 16.6631 17.77 16.1946C17.7617 15.2926 17.4015 14.4209 16.7718 13.7747C16.1118 13.0982 15.229 12.7214 14.2858 12.7104C13.3535 12.7022 12.4488 13.0652 11.7833 13.7169C11.1013 14.3851 10.7273 15.2789 10.7273 16.2303C10.7273 17.1708 11.093 18.0535 11.7585 18.719C12.085 19.0471 12.4733 19.3071 12.901 19.4841C13.3287 19.6611 13.7872 19.7516 14.25 19.7502ZM21.1387 16.9563C21.1635 16.7171 21.1772 16.4751 21.1772 16.2303C21.1772 15.7931 21.136 15.3669 21.059 14.9516C21.0397 14.8526 21.092 14.7509 21.1827 14.7096C21.5567 14.5419 21.9005 14.3109 22.1975 14.0194C22.5474 13.6801 22.8228 13.2715 23.0061 12.8198C23.1893 12.3682 23.2764 11.8832 23.2617 11.396C23.237 10.5133 22.8822 9.67454 22.2635 9.04206C21.5842 8.34633 20.6712 7.96684 19.7005 7.97784C18.8232 7.98609 17.9762 8.32433 17.3355 8.92381C17.1182 9.1273 16.9312 9.3528 16.7745 9.59479C16.7195 9.68004 16.6123 9.71579 16.5188 9.68279C16.0348 9.51504 15.5233 9.3968 14.998 9.3418C14.844 9.3253 14.756 9.1603 14.8248 9.02281C15.7185 7.25461 17.5445 6.03364 19.6565 6.00065C22.7062 5.9539 25.2472 8.45357 25.2472 11.4977C25.2472 13.2247 24.4525 14.7646 23.2067 15.7739C24.0812 16.1781 24.887 16.7363 25.5854 17.4348C27.0924 18.939 27.9449 20.9245 27.9999 23.0446C28.0007 23.074 27.9955 23.1032 27.9848 23.1305C27.9741 23.1579 27.958 23.1828 27.9375 23.2038C27.917 23.2248 27.8925 23.2415 27.8654 23.2529C27.8384 23.2643 27.8093 23.2701 27.7799 23.2701H26.2372C26.1189 23.2701 26.0199 23.1766 26.0172 23.0584C25.9649 21.4634 25.3187 19.9702 24.183 18.8373C23.3745 18.0288 22.3845 17.4678 21.3037 17.1956C21.1965 17.1681 21.125 17.0663 21.1387 16.9563Z" fill="white"/>
</svg>
