<svg width="42" height="42" viewBox="0 0 42 42" fill="none" xmlns="http://www.w3.org/2000/svg">
<g clip-path="url(#clip0_575_971)">
<mask id="mask0_575_971" style="mask-type:alpha" maskUnits="userSpaceOnUse" x="0" y="0" width="42" height="42">
<path fill-rule="evenodd" clip-rule="evenodd" d="M29.783 41.7132C30.1173 41.8435 30.4747 41.9036 30.8332 41.8898C31.1916 41.876 31.5434 41.7887 31.8666 41.6331L40.5137 37.4722C40.959 37.2578 41.3348 36.9221 41.5977 36.5036C41.8607 36.0852 42.0002 35.601 42.0001 35.1067V6.89356C42.0002 6.39928 41.8608 5.91502 41.5978 5.49649C41.3349 5.07796 40.9591 4.74218 40.5137 4.52778L31.8666 0.367486C31.378 0.132386 30.8284 0.0549801 30.2939 0.145981C29.7593 0.236982 29.2663 0.491889 28.883 0.875423L12.3291 15.9777L5.11887 10.5043C4.79356 10.2574 4.39214 10.1322 3.98419 10.1503C3.57624 10.1684 3.18749 10.3287 2.88532 10.6033L0.572696 12.707C0.392473 12.8709 0.248447 13.0706 0.149833 13.2934C0.051218 13.5161 0.000185813 13.757 5.0648e-07 14.0006C-0.0001848 14.2443 0.0504809 14.4852 0.148756 14.7081C0.247032 14.9311 0.390753 15.131 0.570727 15.2952L6.8238 21L0.571055 26.7051C0.39118 26.8693 0.247544 27.0693 0.14933 27.2921C0.0511152 27.515 0.000482431 27.7559 0.000667718 27.9995C0.000853006 28.2431 0.0518523 28.4839 0.150406 28.7066C0.248959 28.9294 0.392899 29.1291 0.573024 29.293L2.88565 31.3966C3.18778 31.6713 3.57651 31.8317 3.98446 31.8498C4.39241 31.868 4.79385 31.7428 5.1192 31.496L12.3294 26.0229L28.8833 41.1249C29.1395 41.381 29.4456 41.5813 29.783 41.7132ZM31.5064 11.4657L18.9461 21L31.5067 30.5346L31.5064 11.4657Z" fill="white"/>
</mask>
<g mask="url(#mask0_575_971)">
<path d="M40.5141 4.53461L31.8601 0.367424C31.3713 0.132023 30.8214 0.0544534 30.2866 0.145461C29.7518 0.236468 29.2585 0.491547 28.8751 0.875362L0.545475 26.705C0.365464 26.8692 0.221708 27.0691 0.123406 27.292C0.0251047 27.5149 -0.0255754 27.7558 -0.0253901 27.9994C-0.0252048 28.243 0.0258419 28.4839 0.124482 28.7067C0.223123 28.9294 0.367184 29.1291 0.547443 29.293L2.86138 31.3966C3.1636 31.6716 3.55259 31.8322 3.96084 31.8503C4.36908 31.8685 4.77079 31.7431 5.09624 31.496L39.2117 5.61513C40.3562 4.74691 42.0001 5.56328 42.0001 6.99981V6.89941C42.0001 6.40527 41.8607 5.92117 41.5978 5.50277C41.3349 5.08437 40.9593 4.749 40.5141 4.53461Z" fill="#0065A9"/>
<g filter="url(#filter0_d_575_971)">
<path d="M40.5141 37.4657L31.8601 41.6323C31.3714 41.8677 30.8215 41.9454 30.2867 41.8545C29.7519 41.7636 29.2586 41.5087 28.8751 41.125L0.545475 15.295C0.365464 15.1308 0.221708 14.9309 0.123406 14.708C0.0251047 14.4851 -0.0255754 14.2442 -0.0253901 14.0006C-0.0252048 13.757 0.0258419 13.5161 0.124482 13.2933C0.223123 13.0706 0.367184 12.8709 0.547443 12.7071L2.86138 10.6034C3.1636 10.3284 3.55259 10.1678 3.96084 10.1497C4.36908 10.1315 4.77079 10.2569 5.09624 10.504L39.2117 36.3846C40.3562 37.2531 42.0001 36.4367 42.0001 35.0002V35.1006C42.0001 35.5947 41.8607 36.0788 41.5978 36.4972C41.3349 36.9156 40.9593 37.2513 40.5141 37.4657Z" fill="#007ACC"/>
</g>
<g filter="url(#filter1_d_575_971)">
<path d="M31.8603 41.6331C31.3713 41.868 30.8215 41.9453 30.2867 41.8542C29.7519 41.7632 29.2586 41.5083 28.875 41.1248C29.8436 42.0934 31.5 41.4073 31.5 40.0374V1.96208C31.5 0.592161 29.8436 -0.0939482 28.875 0.875005C29.2586 0.491489 29.7519 0.236595 30.2867 0.145546C30.8215 0.0544973 31.3713 0.131789 31.8603 0.366739L40.5126 4.52802C40.9582 4.74228 41.3341 5.078 41.5973 5.49654C41.8604 5.91507 42 6.39942 42 6.8938V35.1066C42 35.601 41.8604 36.0854 41.5973 36.5039C41.3341 36.9225 40.9582 37.2582 40.5126 37.4724L31.8603 41.6331Z" fill="#1F9CF0"/>
</g>
<path opacity="0.25" fill-rule="evenodd" clip-rule="evenodd" d="M29.7578 41.7132C30.092 41.8434 30.4494 41.9035 30.8078 41.8897C31.1662 41.876 31.5179 41.7886 31.8411 41.6331L40.4882 37.4722C40.9335 37.2578 41.3093 36.922 41.5723 36.5035C41.8352 36.085 41.9747 35.6007 41.9746 35.1064V6.89356C41.9747 6.39928 41.8352 5.91502 41.5723 5.49649C41.3093 5.07796 40.9335 4.74218 40.4882 4.52778L31.8411 0.367486C31.3525 0.132386 30.8029 0.0549801 30.2683 0.145981C29.7338 0.236982 29.2407 0.491889 28.8574 0.875423L12.3035 15.9777L5.09332 10.5046C4.76801 10.2577 4.36659 10.1325 3.95864 10.1506C3.55069 10.1687 3.16194 10.329 2.85977 10.6037L0.547146 12.7073C0.366968 12.8712 0.222983 13.071 0.124397 13.2937C0.0258116 13.5165 -0.0252048 13.7574 -0.0253901 14.001C-0.0255754 14.2446 0.0250745 14.4855 0.123321 14.7084C0.221567 14.9314 0.365249 15.1313 0.545177 15.2955L6.79826 21L0.545505 26.7048C0.365532 26.869 0.22181 27.0689 0.123535 27.2918C0.0252593 27.5147 -0.0254064 27.7557 -0.0252211 27.9993C-0.0250358 28.2429 0.0259964 28.4838 0.124611 28.7066C0.223225 28.9294 0.367251 29.1291 0.547474 29.293L2.8601 31.3966C3.16223 31.6713 3.55096 31.8317 3.95891 31.8498C4.36686 31.868 4.7683 31.7428 5.09365 31.496L12.3042 26.0226L28.8581 41.1249C29.1142 41.381 29.4205 41.5813 29.7578 41.7132ZM31.4811 11.4653L18.9205 21L31.4811 30.5343V11.4653Z" fill="url(#paint0_linear_575_971)"/>
</g>
</g>
<defs>
<filter id="filter0_d_575_971" x="-1.06714" y="9.1062" width="44.1089" height="33.8272" filterUnits="userSpaceOnUse" color-interpolation-filters="sRGB">
<feFlood flood-opacity="0" result="BackgroundImageFix"/>
<feColorMatrix in="SourceAlpha" type="matrix" values="0 0 0 0 0 0 0 0 0 0 0 0 0 0 0 0 0 0 127 0" result="hardAlpha"/>
<feOffset/>
<feGaussianBlur stdDeviation="0.520875"/>
<feColorMatrix type="matrix" values="0 0 0 0 0 0 0 0 0 0 0 0 0 0 0 0 0 0 0.25 0"/>
<feBlend mode="overlay" in2="BackgroundImageFix" result="effect1_dropShadow_575_971"/>
<feBlend mode="normal" in="SourceGraphic" in2="effect1_dropShadow_575_971" result="shape"/>
</filter>
<filter id="filter1_d_575_971" x="27.8333" y="-0.933352" width="15.2085" height="43.8667" filterUnits="userSpaceOnUse" color-interpolation-filters="sRGB">
<feFlood flood-opacity="0" result="BackgroundImageFix"/>
<feColorMatrix in="SourceAlpha" type="matrix" values="0 0 0 0 0 0 0 0 0 0 0 0 0 0 0 0 0 0 127 0" result="hardAlpha"/>
<feOffset/>
<feGaussianBlur stdDeviation="0.520875"/>
<feColorMatrix type="matrix" values="0 0 0 0 0 0 0 0 0 0 0 0 0 0 0 0 0 0 0.25 0"/>
<feBlend mode="overlay" in2="BackgroundImageFix" result="effect1_dropShadow_575_971"/>
<feBlend mode="normal" in="SourceGraphic" in2="effect1_dropShadow_575_971" result="shape"/>
</filter>
<linearGradient id="paint0_linear_575_971" x1="20.9746" y1="0.108267" x2="20.9746" y2="41.8917" gradientUnits="userSpaceOnUse">
<stop stop-color="white"/>
<stop offset="1" stop-color="white" stop-opacity="0"/>
</linearGradient>
<clipPath id="clip0_575_971">
<rect width="42" height="42" fill="white"/>
</clipPath>
</defs>
</svg>
